<svg width="77" height="77" viewBox="0 0 77 77" fill="none" xmlns="http://www.w3.org/2000/svg">
<path fill-rule="evenodd" clip-rule="evenodd" d="M49.1947 22.4942C46.0291 20.379 42.3073 19.25 38.5 19.25V0C46.1145 0 53.5581 2.25799 59.8895 6.48843C66.2208 10.7188 71.1553 16.7317 74.0694 23.7666C76.9833 30.8015 77.7458 38.5427 76.2602 46.011C74.7747 53.4792 71.108 60.3393 65.7236 65.7236C60.3393 71.108 53.4792 74.7747 46.011 76.2602C38.5427 77.7458 30.8015 76.9833 23.7666 74.0694C16.7317 71.1553 10.7188 66.2208 6.48843 59.8895C2.25799 53.5581 0 46.1145 0 38.5H19.25C19.25 42.3073 20.379 46.0291 22.4942 49.1947C24.6094 52.3604 27.6159 54.8277 31.1334 56.2847C34.6508 57.7417 38.5214 58.1229 42.2555 57.38C45.9896 56.6374 49.4196 54.804 52.1119 52.1119C54.804 49.4196 56.6374 45.9896 57.38 42.2555C58.1229 38.5214 57.7417 34.6508 56.2847 31.1334C54.8277 27.6159 52.3604 24.6094 49.1947 22.4942Z" fill="url(#paint0_linear_144_4772)"/>
<path fill-rule="evenodd" clip-rule="evenodd" d="M19.25 1.01735e-05C19.25 2.52796 18.7521 5.03115 17.7847 7.36668C16.8173 9.70218 15.3993 11.8243 13.6118 13.6118C11.8243 15.3994 9.70218 16.8173 7.36666 17.7847C5.03113 18.7521 2.52794 19.25 8.41438e-07 19.25L0 38.5C5.05589 38.5 10.0623 37.5042 14.7333 35.5694C19.4044 33.6346 23.6486 30.7987 27.2235 27.2236C30.7986 23.6486 33.6346 19.4044 35.5694 14.7333C37.5042 10.0623 38.5 5.05589 38.5 0L19.25 1.01735e-05Z" fill="url(#paint1_linear_144_4772)"/>
<defs>
<linearGradient id="paint0_linear_144_4772" x1="0" y1="0" x2="77" y2="77" gradientUnits="userSpaceOnUse">
<stop stop-color="#FF0000"/>
<stop offset="1" stop-color="#A8DADC"/>
</linearGradient>
<linearGradient id="paint1_linear_144_4772" x1="0" y1="0" x2="77" y2="77" gradientUnits="userSpaceOnUse">
<stop stop-color="#FF0000"/>
<stop offset="1" stop-color="#A8DADC"/>
</linearGradient>
</defs>
</svg>
