<svg width="18" height="18" viewBox="0 0 18 18" fill="none" xmlns="http://www.w3.org/2000/svg">
<path fill-rule="evenodd" clip-rule="evenodd" d="M14.2803 0.21967C14.1397 0.0790176 13.9489 0 13.75 0C13.5511 0 13.3603 0.0790176 13.2197 0.21967L11.2197 2.21967L0.21967 13.2197C0.0790176 13.3603 0 13.5511 0 13.75V16.75C0 17.1642 0.335786 17.5 0.75 17.5H3.75C3.94891 17.5 4.13968 17.421 4.28033 17.2803L15.2796 6.28104C15.2799 6.2808 15.2801 6.28057 15.2803 6.28033L17.2803 4.28033C17.5732 3.98744 17.5732 3.51256 17.2803 3.21967L14.2803 0.21967ZM13.6893 5.75L11.75 3.81066L1.5 14.0607V16H3.43934L13.6893 5.75ZM14.75 4.68934L15.6893 3.75L13.75 1.81066L12.8107 2.75L14.75 4.68934Z" fill="#F1FAEE"/>
</svg>
