<svg width="20" height="20" viewBox="0 0 20 20" fill="none" xmlns="http://www.w3.org/2000/svg">
<path d="M9.99988 1L10.3353 0.32918L9.99988 0.161475L9.66447 0.32918L9.99988 1ZM18.9999 5.5H19.7499V5.03647L19.3353 4.82918L18.9999 5.5ZM18.9999 14.5L19.3353 15.1708L19.7499 14.9635V14.5H18.9999ZM9.99988 19L9.66447 19.6708L9.99988 19.8385L10.3353 19.6708L9.99988 19ZM0.999878 14.5H0.249878V14.9635L0.664468 15.1708L0.999878 14.5ZM0.999878 5.5L0.664468 4.82918L0.249878 5.03647V5.5H0.999878ZM14.2499 11C14.2499 11.4142 14.5857 11.75 14.9999 11.75C15.4141 11.75 15.7499 11.4142 15.7499 11H14.2499ZM14.9999 7.5H15.7499V7.03647L15.3353 6.82918L14.9999 7.5ZM6.33529 2.32918C5.9648 2.14394 5.5143 2.29411 5.32906 2.66459C5.14382 3.03507 5.29398 3.48558 5.66447 3.67082L6.33529 2.32918ZM9.24988 18.5C9.24988 18.9142 9.58566 19.25 9.99988 19.25C10.4141 19.25 10.7499 18.9142 10.7499 18.5H9.24988ZM9.66447 1.67082L18.6645 6.17082L19.3353 4.82918L10.3353 0.32918L9.66447 1.67082ZM18.2499 5.5V14.5H19.7499V5.5H18.2499ZM18.6645 13.8292L9.66447 18.3292L10.3353 19.6708L19.3353 15.1708L18.6645 13.8292ZM10.3353 18.3292L1.33529 13.8292L0.664468 15.1708L9.66447 19.6708L10.3353 18.3292ZM1.74988 14.5V5.5H0.249878V14.5H1.74988ZM1.33529 6.17082L10.3353 1.67082L9.66447 0.32918L0.664468 4.82918L1.33529 6.17082ZM18.6645 4.82918L9.66447 9.32918L10.3353 10.6708L19.3353 6.17082L18.6645 4.82918ZM10.3353 9.32918L1.33529 4.82918L0.664468 6.17082L9.66447 10.6708L10.3353 9.32918ZM15.7499 11V7.5H14.2499V11H15.7499ZM15.3353 6.82918L6.33529 2.32918L5.66447 3.67082L14.6645 8.17082L15.3353 6.82918ZM10.7499 18.5V10H9.24988V18.5H10.7499Z" fill="#F1FAEE"/>
</svg>
