<svg width="20" height="20" viewBox="0 0 20 20" fill="none" xmlns="http://www.w3.org/2000/svg">
<path d="M1.77083 0L1.66667 0.767273L0 13.4945V20H5V18.1818H15V20H20V13.4945L18.3333 0.767273L18.2292 0H1.77083ZM3.22917 1.81818H4.94833L4.21833 12.7273H1.79667L3.22917 1.81818ZM6.615 1.81818H9.16667V12.7273H5.885L6.615 1.81818ZM10.8333 1.81818H13.3858L14.115 12.7273H10.8333V1.81818ZM15.0525 1.81818H16.7708L18.2033 12.7273H15.7808L15.0525 1.81818ZM1.66667 14.5455H18.3333V18.1818H16.6667V16.3636H3.33333V18.1818H1.66667V14.5455Z" fill="#F1FAEE"/>
</svg>
